<svg fill="none" height="1228" viewBox="0 0 1440 1228" width="1440" xmlns="http://www.w3.org/2000/svg"><g fill="#2f80ed"><path d="m-40.2992 749.776c1.0726 43.353 29.9668 81.075 71.5452 93.402l901.553 267.282c51.09 15.15 105.081-12.43 122.761-62.7l272.7-775.4c21.97-62.462-21.73-128.643-87.81-132.964l-1134.146-74.182c-87.98-5.7545-161.9247 65.249-159.7441 153.39z"/><path d="m-87.5324 783.08c-2.0467 45.105 26.3848 85.986 69.382 99.764l984.6084 315.506c51.532 16.51 106.852-10.97 124.832-62l320.04-908.405c21.96-62.331-21.5-128.4426-87.43-132.9924l-1222.689-84.3792c-84.0259-5.79886-156.3545 58.7052-160.1724 142.8446z" fill-opacity=".1"/></g></svg>