<svg width="768" height="1295" viewBox="0 0 768 1295" fill="none" xmlns="http://www.w3.org/2000/svg">
<path d="M62.7008 777.776C63.7734 821.129 92.6676 858.851 134.246 871.178L1035.8 1138.46C1086.89 1153.61 1140.88 1126.03 1158.56 1075.76L1431.26 300.36C1453.23 237.898 1409.53 171.717 1343.45 167.396L209.304 93.214C121.324 87.4595 47.3793 158.463 49.5599 246.604L62.7008 777.776Z" fill="#2F80ED"/>
<path d="M-243.773 831.392C-245.685 875.829 -218.017 916.189 -175.879 930.428L807.936 1262.88C860.385 1280.6 917.253 1252.34 934.796 1199.83L1258.21 231.755C1278.89 169.862 1235.71 105.068 1170.63 100.332L-53.893 11.2154C-138.255 5.07582 -211.006 69.8649 -214.642 154.372L-243.773 831.392Z" fill="#2F80ED" fill-opacity="0.1"/>
</svg>
