<svg fill="none" height="1295" viewBox="0 0 320 1295" width="320" xmlns="http://www.w3.org/2000/svg"><g fill="#2f80ed"><path d="m-113.299 777.776c1.072 43.353 29.9666 81.075 71.545 93.402l901.553 267.282c51.09 15.15 105.081-12.43 122.761-62.7l272.7-775.4c21.97-62.462-21.73-128.643-87.81-132.964l-1134.1458-74.182c-87.9802-5.7545-161.9252 65.249-159.7442 153.39z"/><path d="m-419.773 831.392c-1.912 44.437 25.756 84.797 67.894 99.036l983.815 332.452c52.449 17.72 109.317-10.54 126.86-63.05l323.414-968.075c20.68-61.893-22.5-126.687-87.584-131.423l-1224.519-89.1166c-84.362-6.13958-157.113 58.6495-160.749 143.1566z" fill-opacity=".1"/></g></svg>