<svg fill="none" height="2368" viewBox="0 0 320 2368" width="320" xmlns="http://www.w3.org/2000/svg"><g fill="#2f80ed"><path d="m1109.45 343.771c-9.77-36.921-39.71-65.052-77.17-72.499l-1247.775-248.0672c-60.924-12.1122-118.036 33.6673-119.472 95.7672l-49.225 2127.658c-1.455 62.9 54.842 111.5 116.854 100.88l1608.818-275.54c115.79-19.83 189.64-134.72 159.58-248.29z" opacity=".1"/><path d="m1064.69 464.813c-9.31-36.611-38.46-64.848-75.354-72.991l-1103.658-243.634c-61.462-13.568-120.026 32.339-121.528 95.263l-45.249 1895.999c-1.503 62.96 54.858 111.62 116.92 100.94l1450.209-249.4c86.23-14.83 141.52-100.02 119.95-184.82z"/></g></svg>