<svg width="320" height="1295" viewBox="0 0 320 1295" fill="none" xmlns="http://www.w3.org/2000/svg">
<path d="M-113.299 777.776C-112.227 821.129 -83.3324 858.851 -41.754 871.178L859.799 1138.46C910.889 1153.61 964.88 1126.03 982.56 1075.76L1255.26 300.36C1277.23 237.898 1233.53 171.717 1167.45 167.396L33.3042 93.214C-54.676 87.4595 -128.621 158.463 -126.44 246.604L-113.299 777.776Z" fill="#2F80ED"/>
<path d="M-419.773 831.392C-421.685 875.829 -394.017 916.189 -351.879 930.428L631.936 1262.88C684.385 1280.6 741.253 1252.34 758.796 1199.83L1082.21 231.755C1102.89 169.862 1059.71 105.068 994.626 100.332L-229.893 11.2154C-314.255 5.07582 -387.006 69.8649 -390.642 154.372L-419.773 831.392Z" fill="#2F80ED" fill-opacity="0.1"/>
</svg>
