<svg fill="none" height="54" viewBox="0 0 54 54" width="54" xmlns="http://www.w3.org/2000/svg"><g fill="#333"><path d="m6.28439 6.29723v46.77647c0 .4969.40277.8996.89965.8996h34.18286c.4965 0 .8993-.4027.8993-.8996v-37.7807c0-.0201-.0096-.0371-.0115-.0567-.0044-.079-.02-.1568-.0459-.2312-.0101-.0289-.0171-.0567-.0297-.0849-.0437-.0978-.1045-.1871-.1801-.2634l-8.9953-8.9954c-.0764-.07596-.166-.13673-.2646-.18008-.027-.01149-.0544-.02112-.0826-.02964-.0752-.02594-.1534-.0415-.2331-.04669-.0152.00259-.0329-.00704-.0518-.00704h-25.18756c-.49688 0-.89965.40239-.89965.89928zm32.91081 8.09607h-5.9244v-5.9244zm-31.11188-7.19643h23.38858v8.09613c0 .4965.4028.8992.8993.8992h8.0961v35.9822h-32.38398z"/><path d="m44.0655 46.7764v1.799h2.6986c.4968 0 .8996-.4024.8996-.8993v-46.776453c0-.496881-.4028-.899647-.8996-.899647h-34.1829c-.4969 0-.8997.402766-.8997.899647v2.698573h1.7993v-1.7993h32.3836v44.97748z"/><path d="m13.4808 17.9907h21.589v1.799h-21.589z"/><path d="m13.4808 12.5938h7.1965v1.7992h-7.1965z"/><path d="m13.4808 23.3882h14.3929v1.7993h-14.3929z"/><path d="m29.6726 23.3882h5.3972v1.7993h-5.3972z"/><path d="m13.4808 28.7856h21.589v1.7993h-21.589z"/><path d="m13.4808 39.5801h21.589v1.7993h-21.589z"/><path d="m21.5765 34.1831h13.4933v1.7989h-13.4933z"/><path d="m13.4808 34.1831h6.2968v1.7989h-6.2968z"/><path d="m13.4808 44.978h3.5983v1.7989h-3.5983z"/><path d="m18.878 44.978h16.1918v1.7989h-16.1918z"/></g></svg>