<svg fill="none" height="70" viewBox="0 0 83 70" width="83" xmlns="http://www.w3.org/2000/svg"><circle cx="48" cy="35" fill="#2f80ed" opacity=".1" r="35"/><g fill="#868686"><path d="m60.0161 33.5161h-.9838v-6.0724c0-2.0583-.8009-3.9926-2.2561-5.4457-1.4551-1.4552-3.3894-2.2561-5.4467-2.2561h-1.1521v-1.0645c2.3485-1.3637 3.9355-3.9001 3.9355-6.8064 0-4.33989-3.5311-7.871-7.871-7.871-4.3398 0-7.8709 3.53111-7.8709 7.871 0 2.9053 1.587 5.4427 3.9354 6.8064v1.0645h-1.1521c-2.0572 0-3.9915.8009-5.4467 2.2561-1.4551 1.4541-2.256 3.3874-2.256 5.4457v6.0724h-1.9677v-2.9516c0-.5441-.4408-.9839-.9839-.9839h-2.9516v-.3374c0-2.869.9681-5.5874 2.742-7.7903.366.1623.7684.2568 1.1935.2568 1.6273 0 2.9516-1.3243 2.9516-2.9516 0-1.6274-1.3243-2.9516-2.9516-2.9516-1.6274 0-2.9516 1.3242-2.9516 2.9516 0 .4801.1259.9258.3296 1.3272-2.1242 2.5748-3.2813 5.7773-3.2813 9.1579v.3374h-2.9516c-.5431 0-.9838.4398-.9838.9839v2.9516h-.9839c-.5431 0-.9839.4398-.9839.9839v3.9355c0 .5441.4408.9839.9839.9839h.9839v5.9032c-2.7126 0-4.9194 2.2068-4.9194 4.9193 0 1.4611.6533 2.7608 1.6677 3.663-1.5408.7025-2.8188 1.8831-3.6354 3.3579-.8166-1.4738-2.0947-2.6544-3.6354-3.3579 1.0143-.9022 1.6676-2.2019 1.6676-3.663 0-2.7125-2.2068-4.9193-4.91933-4.9193s-4.91936 2.2068-4.91936 4.9193c0 1.4611.65329 2.7608 1.66766 3.663-2.7204 1.2406-4.61927 3.9797-4.61927 7.1596v2.9516c0 .5441.440774.9839.983871.9839h41.322529c.5431 0 .9839-.4398.9839-.9839v-.9838h14.7581c.5431 0 .9839-.4398.9839-.9839v-22.629h.9838c.5431 0 .9839-.4398.9839-.9839v-3.9355c0-.5441-.4408-.9839-.9839-.9839zm-28.5322-15.7419c.5421 0 .9838.4408.9838.9839s-.4417.9838-.9838.9838-.9839-.4407-.9839-.9838.4418-.9839.9839-.9839zm25.5806 9.6695v6.0724h-1.9677v-3.9355h-1.9678v3.9355h-5.9032v-7.2629l2.5118 1.2554c.1378.0699.2893.1043.4398.1043.1279 0 .2558-.0246.3768-.0748.2637-.1092.4664-.3276.5569-.5972l1.6795-5.0374c.972.2548 1.8654.7566 2.5954 1.4866 1.0823 1.0823 1.6785 2.5217 1.6785 4.0536zm-14.2661-5.734 1.949 2.5984-1.8664.9337-1.1767-3.5321zm6.8871 0h1.095l-1.1767 3.5321-1.8664-.9337zm-3.4436-15.74196c2.8926 0 5.3011 2.0927 5.8029 4.84266-1.8634-.2362-3.5882-1.06853-4.9371-2.41742l-.1682-.16922c-.369-.37092-1.0242-.37092-1.3932 0l-.1672.16824c-1.3499 1.34987-3.0746 2.1822-4.9381 2.4174.4998-2.74896 2.9084-4.84166 5.8009-4.84166zm-5.8294 6.83496c2.1625-.2145 4.1854-1.0892 5.8294-2.5256 1.6441 1.4355 3.6659 2.3111 5.8295 2.5256-.4477 2.8139-2.8916 4.9715-5.8295 4.9715-2.9378 0-5.3817-2.1576-5.8294-4.9715zm5.8294 6.9392c.6809 0 1.3371-.0954 1.9678-.2587v.915l-1.9678 2.623-1.9677-2.623v-.915c.6307.1633 1.2869.2587 1.9677.2587zm-10.8225 7.7018c0-1.5319.5962-2.9723 1.6794-4.0546.7301-.729 1.6234-1.2318 2.5955-1.4866l1.6794 5.0374c.0906.2696.2932.488.5569.5972.12.0512.2479.0758.3758.0758.1506 0 .3021-.0344.4398-.1033l2.5119-1.2564v7.2629h-5.9033v-3.9355h-1.9677v3.9355h-1.9677zm-11.8065 4.1047h5.9032v1.9677h-5.9032zm-4.9194 18.6935c0-1.6273 1.3243-2.9516 2.9517-2.9516 1.6273 0 2.9516 1.3243 2.9516 2.9516 0 1.6274-1.3243 2.9517-2.9516 2.9517-1.6274 0-2.9517-1.3243-2.9517-2.9517zm-13.77415 0c0-1.6273 1.3243-2.9516 2.95162-2.9516s2.95163 1.3243 2.95163 2.9516c0 1.6274-1.32431 2.9517-2.95163 2.9517s-2.95162-1.3243-2.95162-2.9517zm-2.95161 10.8226c0-3.2556 2.6476-5.9032 5.90323-5.9032s5.90323 2.6476 5.90323 5.9032v1.9678h-11.80646zm13.77416 0c0-3.2556 2.6476-5.9032 5.9033-5.9032 3.2556 0 5.9032 2.6476 5.9032 5.9032v1.9678h-11.8065zm25.5807 1.9678h-11.8065v-1.9678c0-3.2556 2.6476-5.9032 5.9033-5.9032 3.2556 0 5.9032 2.6476 5.9032 5.9032zm-8.8549-12.7904c0-1.6273 1.3243-2.9516 2.9517-2.9516 1.6273 0 2.9516 1.3243 2.9516 2.9516 0 1.6274-1.3243 2.9517-2.9516 2.9517-1.6274 0-2.9517-1.3243-2.9517-2.9517zm24.5968 10.8226h-13.7742c0-3.1799-1.8989-5.919-4.6193-7.1596 1.0144-.9022 1.6677-2.2019 1.6677-3.663 0-2.7125-2.2068-4.9193-4.9193-4.9193-2.7126 0-4.9194 2.2068-4.9194 4.9193 0 1.4611.6533 2.7608 1.6677 3.663-1.5408.7025-2.8188 1.8831-3.6354 3.3579-.8167-1.4738-2.0947-2.6544-3.6354-3.3579 1.0143-.9022 1.6676-2.2019 1.6676-3.663 0-2.012-1.217-3.7406-2.9516-4.5022v-6.3203h33.4516zm1.9678-23.6129h-37.3871v-1.9677h37.3871z"/><path d="m2.95161 23.6775h15.74189c1.6274 0 2.9517-1.3243 2.9517-2.9517v-1.5604l3.6472-3.6472c.3847-.3847.3847-1.0065 0-1.3912l-3.6472-3.6472v-1.56041c0-1.62733-1.3243-2.95162-2.9517-2.95162h-15.74189c-1.62732 0-2.95161 1.32429-2.95161 2.95162v11.80641c0 1.6274 1.32429 2.9517 2.95161 2.9517zm-.98387-14.75811c0-.5431.44176-.98387.98387-.98387h15.74189c.5422 0 .9839.44077.9839.98387v1.96771c0 .2617.1033.5116.2883.6956l3.2399 3.2399-3.2399 3.2399c-.185.184-.2883.4339-.2883.6956v1.9677c0 .5431-.4417.9839-.9839.9839h-15.74189c-.54211 0-.98387-.4408-.98387-.9839z"/><path d="m3.93549 9.90332h13.77421v1.96778h-13.77421z"/><path d="m3.93549 17.7742h13.77421v1.9677h-13.77421z"/><path d="m5.90323 13.8386h9.83867v1.9678h-9.83867z"/></g></svg>