<svg fill="none" height="1847" viewBox="0 0 768 1847" width="768" xmlns="http://www.w3.org/2000/svg"><g fill="#2f80ed"><path d="m1112.96 278.481c-11.97-35.28-42.56-60.982-79.37-66.691l-1253.883-194.4347c-59.433-9.21607-113.497 35.7374-115.28 95.8537l-47.937 1616.121c-1.829 61.66 52.056 110.25 113.197 102.08l1586.263-211.9c124.85-16.67 203.39-143.21 162.92-262.49z" opacity=".1"/><path d="m1219.19 345.211c-11.5-35.254-41.56-61.253-78.1-67.547l-1109.6316-191.1296c-59.8964-10.3169-115.0698 34.7416-116.9279 95.4916l-43.9255 1436.124c-1.888 61.72 52.0549 110.38 113.2525 102.17l1434.6525-192.51c92.87-12.47 151.71-106.09 122.66-195.17z"/></g></svg>