<svg fill="none" height="70" viewBox="0 0 95 70" width="95" xmlns="http://www.w3.org/2000/svg"><circle cx="60" cy="35" fill="#2f80ed" opacity=".1" r="35"/><g fill="#868686"><path d="m10.0667 28h13.8666c.5899 0 1.0667-.448 1.0667-1s-.4768-1-1.0667-1h-13.8666c-.5899 0-1.0667.448-1.0667 1s.4768 1 1.0667 1z"/><path d="m36 31h-26c-.553 0-1 .448-1 1s.447 1 1 1h26c.553 0 1-.448 1-1s-.447-1-1-1z"/><path d="m36 38h-26c-.553 0-1 .448-1 1s.447 1 1 1h26c.553 0 1-.448 1-1s-.447-1-1-1z"/><path d="m54.072 5.07118-34.142-.07118c-3.27 0-5.93 2.70487-5.93 6.03v5.2105l-8.07.0173c-3.27 0-5.93 2.7048-5.93 6.03v21.4976c0 3.3252 2.66 6.029 5.93 6.029h6.07v10.1687c0 .42.254.7973.64.9488.117.0457.239.0681.36.0681.276 0 .547-.1169.74-.3325l9.704-10.8551 16.626-.0691c3.27 0 5.93-2.7049 5.93-6.0291v-.1149l5.26 5.8836c.193.2156.464.3326.74.3326.121 0 .243-.0224.36-.0682.386-.1515.64-.5287.64-.9487v-10.1687h1.07c3.27 0 5.93-2.7049 5.93-6.029v-21.4997c0-3.32413-2.659-6.029-5.928-6.03002zm-10.072 38.64202c0 2.2036-1.763 3.9953-3.934 3.9953l-17.07.0712c-.28.001-.548.122-.736.3325l-8.26 9.2403v-8.5559c0-.5614-.447-1.0169-1-1.0169h-7.07c-2.167 0-3.93-1.7928-3.93-3.9953v-21.4976c0-2.2036 1.763-3.9963 3.932-3.9963l9.068-.0193h.002l25.068-.0529c2.167 0 3.93 1.7927 3.93 3.9963v18.7521zm14-11.1144c0 2.2036-1.763 3.9953-3.93 3.9953h-2.07c-.553 0-1 .4556-1 1.0169v8.5559l-5-5.5927v-18.3586c0-3.3252-2.66-6.03-5.932-6.03l-24.068.0498v-5.2064c0-2.20354 1.763-3.99628 3.928-3.99628l34.141.07118h.002c2.167 0 3.93 1.79274 3.93 3.9963v21.4986z"/></g></svg>