<svg fill="none" height="70" viewBox="0 0 85 70" width="85" xmlns="http://www.w3.org/2000/svg"><circle cx="50" cy="35" fill="#2f80ed" opacity=".1" r="35"/><g fill="#868686"><path d="m35 57h-2v-9.8c0-.5523-.4477-1-1-1s-1 .4477-1 1v9.8h-26v-20h8.32c.5523 0 1-.4477 1-1s-.4477-1-1-1h-9.32c-.55228 0-1 .4477-1 1v21h-2c-.552285 0-1 .4477-1 1v2c0 2.7614 2.23858 5 5 5h26c2.7614 0 5-2.2386 5-5v-2c0-.5523-.4477-1-1-1zm-1 3c0 1.6569-1.3431 3-3 3h-2v-1c0-.5523-.4477-1-1-1s-1 .4477-1 1v1h-18v-1c0-.5523-.44771-1-1-1-.55228 0-1 .4477-1 1v1h-2c-1.65685 0-3-1.3431-3-3v-1h32z"/><path d="m52 11h2c.5523 0 1-.4477 1-1 0-.55228-.4477-1-1-1h-2c-1.6569 0-3 1.3431-3 3v1h-1c-.5523 0-1 .4477-1 1s.4477 1 1 1h1v3c0 .5523.4477 1 1 1s1-.4477 1-1v-3h1c.5523 0 1-.4477 1-1s-.4477-1-1-1h-1v-1c0-.5523.4477-1 1-1z"/><path d="m57 5h-12c-1.6569 0-3 1.34315-3 3v2c0 .5523.4477 1 1 1s1-.4477 1-1v-2c0-.55228.4477-1 1-1h12c.5523 0 1 .44772 1 1v12c0 .5523-.4477 1-1 1h-12c-.5523 0-1-.4477-1-1v-6c0-.5523-.4477-1-1-1s-1 .4477-1 1v6c0 1.6569 1.3431 3 3 3h12c1.6569 0 3-1.3431 3-3v-12c0-1.65685-1.3431-3-3-3z"/><path d="m47 45c0 2.2091 1.7909 4 4 4s4-1.7909 4-4-1.7909-4-4-4-4 1.7909-4 4zm6 0c0 1.1046-.8954 2-2 2s-2-.8954-2-2 .8954-2 2-2 2 .8954 2 2z"/><path d="m57 36h-12c-1.6569 0-3 1.3431-3 3v12c0 1.6569 1.3431 3 3 3h12c1.6569 0 3-1.3431 3-3v-2c0-.5523-.4477-1-1-1s-1 .4477-1 1v2c0 .5523-.4477 1-1 1h-12c-.5523 0-1-.4477-1-1v-12c0-.5523.4477-1 1-1h12c.5523 0 1 .4477 1 1v6c0 .5523.4477 1 1 1s1-.4477 1-1v-6c0-1.6569-1.3431-3-3-3z"/><path d="m22.47 16.8499c.1591.0986.3428.1506.53.15.1565-.0009.3107-.0386.45-.11l6-3c.334-.1711.544-.5148.544-.89s-.21-.7189-.544-.89l-6-3c-.3095-.15596-.6777-.14054-.9731.04077s-.4758.50264-.4769.84923v6c-.0007.3455.177.6669.47.85zm1.53-5.23 2.76 1.38-2.76 1.38z"/><path d="m25 22c4.9706 0 9-4.0294 9-9 0-4.97056-4.0294-9-9-9s-9 4.02944-9 9c0 4.9706 4.0294 9 9 9zm0-16c3.866 0 7 3.13401 7 7 0 3.866-3.134 7-7 7s-7-3.134-7-7c0-3.86599 3.134-7 7-7z"/><path d="m35 26.0001c.3148 0 .6111-.1482.8-.4l3-4c.3314-.4419.2418-1.0687-.2-1.4-.4418-.3314-1.0686-.2419-1.4.2l-3 4c-.3314.4418-.2418 1.0686.2 1.4.1731.1298.3836.2.6.2z"/><path d="m37.2 29.6001c.1889.2518.4852.4.8.4.2164 0 .4269-.0702.6-.2l4-3c.4418-.3314.5314-.9582.2-1.4-.3314-.4419-.9582-.5314-1.4-.2l-4 3c-.4418.3313-.5314.9581-.2 1.4z"/><path d="m47 31.8001c-.048-.2679-.2031-.5046-.4296-.6556-.2264-.1509-.5046-.2031-.7704-.1444l-5 1c-.5523.0552-.9552.5477-.9 1.1s.5477.9552 1.1.9h.2l5-1c.2679-.048.5046-.2032.6556-.4296s.2031-.5046.1444-.7704z"/><path d="m1 32h12c.5523 0 1-.4477 1-1v-16c0-.5523-.4477-1-1-1h-12c-.552285 0-1 .4477-1 1v16c0 .5523.447715 1 1 1zm1-16h10v14h-10z"/><path d="m9 18h-2c-.55228 0-1 .4477-1 1s.44772 1 1 1h2c.55228 0 1-.4477 1-1s-.44772-1-1-1z"/><path d="m9 22h-4c-.55228 0-1 .4477-1 1s.44772 1 1 1h4c.55228 0 1-.4477 1-1s-.44772-1-1-1z"/><path d="m9 26h-4c-.55228 0-1 .4477-1 1s.44772 1 1 1h4c.55228 0 1-.4477 1-1s-.44772-1-1-1z"/><path d="m34.12 31.7c-.1786-.3108-.5095-.5027-.868-.5034-.3585-.0008-.6901.1898-.87.5-.1799.3101-.1806.6926-.002 1.0034l4.41 7.63-16 6s0 0-.07 0h-.08l-2.6 1.5-1.73 1c-.46.2659-1.0069.3379-1.52.2-.5104-.1379-.9454-.4723-1.21-.93l-2-3.46c-.4885-.9398-.1596-2.0974.75-2.64l3.46-2 2.5 4.33c.1793.3106.5113.5014.87.5.358.0014.6894-.1886.869-.4983.1796-.3096.18-.6917.001-1.0017l-2.58-4.46 12.55-10.35.41.71c.2761.4805.8895.6461 1.37.37s.6461-.8895.37-1.37l-1-1.73c-.1483-.2536-.4007-.4291-.69-.48-.2909-.0548-.5912.0221-.82.21l-14 11.54-4.26 2.46c-1.57223.9158-2.32834 2.7773-1.83999 4.53l-1 .57c-1.05374.6051-1.63839 1.7861-1.48066 2.991.15772 1.2048 1.02666 2.1955 2.20066 2.509.25448.0674.51673.101.77999.1.5261-.0022 1.0427-.1399 1.5-.4l1-.57c.4804.4962 1.0845.8553 1.75 1.04.3417.0956.6952.1427 1.05.14.7029.0016 1.3934-.1848 2-.54l.87-.5 2 3.47c.8275 1.4307 2.6564 1.9226 4.09 1.1.6899-.3975 1.1935-1.053 1.3998-1.822s.0985-1.5885-.2998-2.278l-1.82-3.17 15-5.63c.2753-.1035.4912-.323.59-.6.0985-.2737.0729-.5767-.07-.83zm-23.62 17.09c-.23.133-.50344.1689-.75999.1-.25621-.0666-.47557-.232-.61-.46-.13297-.23-.16895-.5034-.1-.76.06895-.2579.23818-.4776.47-.61l.86999-.5 1 1.73zm13.16 2.8c.133.23.1689.5034.1.76-.0713.2542-.2403.4699-.47.6-.4754.2731-1.082.1125-1.36-.36l-2-3.47 1.66-.95h.08z"/></g></svg>