<svg fill="none" height="70" viewBox="0 0 94 70" width="94" xmlns="http://www.w3.org/2000/svg"><circle cx="59" cy="35" fill="#2f80ed" opacity=".1" r="35"/><g fill="#868686"><path d="m54.9643 60.9423c0 .5629-.4558 1.0192-1.0179 1.0192h-10.1785v-3.4857c-.01-3.2139-2.1555-6.0282-5.2494-6.8847l-5.9471-1.62v-1.5427c1.9065-1.3293 3.0461-3.5061 3.0536-5.8322v-1.9295c.2594-.119.4234-.2036.4548-.216.3454-.1727.5631-.526.5631-.9122v-6.1154l5.4545-2.1007c.3942-.1508.6546-.5295.6546-.952 0-.4226-.2604-.8008-.6546-.9521l-13.2321-5.0961c-.2351-.0896-.4955-.0896-.7306 0l-13.2321 5.0961c-.3917.1508-.6506.5271-.6526.9471v4.6741l-2.7554 2.7591 1.4393 1.4413 1.3161-1.3179v1.6165h2.0357v-1.6165l1.3161 1.3179 1.4393-1.4413-2.7554-2.7591v-3.1901l4.0714 1.5737v6.1154c-.0019.3881.2162.744.5631.9172.0314.0154.1954.097.4548.216v1.9245c-.0179 2.333 1.1272 4.5218 3.0536 5.8352v1.5397l-5.9506 1.621c-3.0919.857-5.2364 3.6708-5.2459 6.8837v3.4857h-10.17853c-.56211 0-1.01786-.4563-1.01786-1.0192v-39.75h28.49999v-2.0385h-28.49999v-5.0961c0-.5629.45575-1.0192 1.01786-1.0192h27.48213v-2.0385h-27.48213c-1.68632 0-3.05357 1.3691-3.05357 3.0577v46.8846c0 1.6886 1.36725 3.0577 3.05357 3.0577h50.89283c1.6864 0 3.0536-1.3691 3.0536-3.0577v-37.7115h-2.0357zm-28.5-10.1923v-1.3248c1.3265.4086 2.7449.4086 4.0714 0v1.3248c.0035.2921.1327.5683.3554.7575l-2.3911 1.9946-2.3911-1.9937c.2227-.1891.3524-.4658.3554-.7584zm2.0357-24.3894 10.3963 4.0048-10.3963 4.0047-10.3963-4.0047zm-.3653 10.053c.2351.0896.4955.0896.7306 0l5.7418-2.2117v4.6881c-1.9174.9237-3.9869 1.489-6.1071 1.6677-2.1202-.1802-4.1897-.7455-6.1071-1.6687v-4.6881zm-4.724 6.1826v-1.0939c1.6247.6425 3.3443 1.0122 5.0893 1.0939 1.745-.0817 3.4646-.4514 5.0893-1.0939v1.0939c-.0025 1.8209-.9751 3.5026-2.5516 4.4108-1.5765.9083-3.5173.9048-5.0903-.0089-.3842-.2185-.7361-.4893-1.0467-.8043-.9592-.9495-1.4964-2.2465-1.49-3.5976zm-8.1428 15.8796c.0074-2.2952 1.5397-4.3053 3.7488-4.9179l4.8011-1.3074 4.0306 3.3632c.3778.3151.9254.3151 1.3032 0l4.0306-3.3632 4.7981 1.3064c2.2101.6121 3.7434 2.6227 3.7518 4.9189v3.4857h-3.0535v-4.0769h-2.0357v4.0769h-16.2858v-4.0769h-2.0357v4.0769h-3.0535z"/><path d="m6 16h2v2h-2z"/><path d="m11 16h2v2h-2z"/><path d="m15 16h2v2h-2z"/><path d="m56 3h-20c-1.6567 0-3 1.34326-3 3v12c0 1.6567 1.3433 3 3 3h3v4c0 .4248.2681.8032.6689.9438.1065.0367.2183.0557.3311.0562.3037 0 .5913-.1377.7808-.375l3.6992-4.625h11.52c1.6567 0 3-1.3433 3-3v-12c0-1.65674-1.3433-3-3-3zm1 15c0 .5522-.4478 1-1 1h-12c-.3037 0-.5913.1377-.7808.375l-2.2192 2.7739v-2.1489c0-.5522-.4478-1-1-1h-4c-.5522 0-1-.4478-1-1v-12c0-.55225.4478-1 1-1h20c.5522 0 1 .44775 1 1z"/><path d="m39 7h15v2h-15z"/><path d="m39 11h15v2h-15z"/><path d="m39 16h15v2h-15z"/></g></svg>