<svg fill="none" height="970" viewBox="0 0 1440 970" width="1440" xmlns="http://www.w3.org/2000/svg"><g fill="#2f80ed"><path d="m1100.65 157.855c-16.87-26.074-44.9-42.83-75.85-45.347l-1274.741-103.64334c-56.008-4.55373-104.771 37.92044-107.944 94.02334l-42.596 752.965c-3.402 60.137 46.741 109.612 106.827 105.404l1493.134-104.582c151.89-10.638 236.66-180.33 153.95-308.16z" opacity=".1"/><path d="m1056.25 219.114c-16.9-25.347-44.44-41.605-74.798-44.162l-1132.587-95.3788c-55.873-4.7054-104.695 37.4418-108.196 93.4038l-37.57 600.549c-3.765 60.178 46.185 109.977 106.351 106.03l1357.57-89.067c115.16-7.555 179.01-136.893 114.97-232.907z"/></g></svg>